<svg version="1.2" preserveAspectRatio="xMidYMid meet" viewBox="8.499975 141.249746610006 351 79.499998092" zoomAndPan="magnify" xmlns:xlink="http://www.w3.org/1999/xlink" xmlns="http://www.w3.org/2000/svg" style="max-height: 500px" width="351" height="79.499998092"><defs><clipPath id="53a0fde6cc"><path d="M 38 143.046875 L 66.019531 143.046875 L 66.019531 164.847656 L 38 164.847656 Z M 38 143.046875"/></clipPath><clipPath id="347ed50fd0"><path d="M 66.019531 162.597656 L 66.019531 144.980469 C 66.019531 143.738281 65.011719 142.730469 63.769531 142.730469 L 40.339844 142.730469 C 39.097656 142.730469 38.089844 143.738281 38.089844 144.980469 L 38.089844 162.597656 C 38.089844 163.839844 39.097656 164.847656 40.339844 164.847656 L 63.769531 164.847656 C 65.011719 164.847656 66.019531 163.839844 66.019531 162.597656 Z M 66.019531 162.597656"/></clipPath><clipPath id="98073c0722"><path d="M 58 143.046875 L 66.019531 143.046875 L 66.019531 164.847656 L 58 164.847656 Z M 58 143.046875"/></clipPath><clipPath id="a548c2ba6b"><path d="M 66.019531 162.597656 L 66.019531 144.980469 C 66.019531 143.738281 65.011719 142.730469 63.769531 142.730469 L 40.339844 142.730469 C 39.097656 142.730469 38.089844 143.738281 38.089844 144.980469 L 38.089844 162.597656 C 38.089844 163.839844 39.097656 164.847656 40.339844 164.847656 L 63.769531 164.847656 C 65.011719 164.847656 66.019531 163.839844 66.019531 162.597656 Z M 66.019531 162.597656"/></clipPath><clipPath id="4ffb237346"><path d="M 10.277344 142.84375 L 33.9375 142.84375 L 33.9375 164.644531 L 10.277344 164.644531 Z M 10.277344 142.84375"/></clipPath><clipPath id="564a6b35de"><path d="M 18.300781 142.84375 L 41.957031 142.84375 L 41.957031 164.644531 L 18.300781 164.644531 Z M 18.300781 142.84375"/></clipPath><clipPath id="b2f248c42e"><path d="M 24.78125 170.671875 L 52.992188 170.671875 L 52.992188 192.46875 L 24.78125 192.46875 Z M 24.78125 170.671875"/></clipPath><clipPath id="f54182da89"><path d="M 52.992188 190.21875 L 52.992188 172.710938 C 52.992188 171.46875 51.984375 170.460938 50.742188 170.460938 L 27.113281 170.460938 C 25.871094 170.460938 24.863281 171.46875 24.863281 172.710938 L 24.863281 190.21875 C 24.863281 191.464844 25.871094 192.46875 27.113281 192.46875 L 50.742188 192.46875 C 51.984375 192.46875 52.992188 191.464844 52.992188 190.21875 Z M 52.992188 190.21875"/></clipPath><clipPath id="e17ea7fd27"><path d="M 45 170.671875 L 52.992188 170.671875 L 52.992188 192.46875 L 45 192.46875 Z M 45 170.671875"/></clipPath><clipPath id="cef50c5733"><path d="M 52.992188 190.21875 L 52.992188 172.710938 C 52.992188 171.46875 51.984375 170.460938 50.742188 170.460938 L 27.113281 170.460938 C 25.871094 170.460938 24.863281 171.46875 24.863281 172.710938 L 24.863281 190.21875 C 24.863281 191.464844 25.871094 192.46875 27.113281 192.46875 L 50.742188 192.46875 C 51.984375 192.46875 52.992188 191.464844 52.992188 190.21875 Z M 52.992188 190.21875"/></clipPath><clipPath id="0da1fdf5a9"><path d="M 17.355469 170.664062 L 41.011719 170.664062 L 41.011719 192.464844 L 17.355469 192.464844 Z M 17.355469 170.664062"/></clipPath><clipPath id="b38cdb732d"><path d="M 10.277344 170.664062 L 33.9375 170.664062 L 33.9375 192.464844 L 10.277344 192.464844 Z M 10.277344 170.664062"/></clipPath><clipPath id="ed4a427574"><path d="M 33.9375 190.964844 L 33.9375 172.148438 C 33.9375 171.320312 33.265625 170.648438 32.4375 170.648438 L 11.46875 170.648438 C 10.640625 170.648438 9.96875 171.320312 9.96875 172.148438 L 9.96875 190.964844 C 9.96875 191.792969 10.640625 192.464844 11.46875 192.464844 L 32.4375 192.464844 C 33.265625 192.464844 33.9375 191.792969 33.9375 190.964844 Z M 33.9375 190.964844"/></clipPath><clipPath id="e318cb77ea"><path d="M 38 198.605469 L 66.210938 198.605469 L 66.210938 220.40625 L 38 220.40625 Z M 38 198.605469"/></clipPath><clipPath id="7104fb4df1"><path d="M 66.210938 218.15625 L 66.210938 200.644531 C 66.210938 199.402344 65.203125 198.394531 63.960938 198.394531 L 40.332031 198.394531 C 39.089844 198.394531 38.082031 199.402344 38.082031 200.644531 L 38.082031 218.15625 C 38.082031 219.398438 39.089844 220.40625 40.332031 220.40625 L 63.960938 220.40625 C 65.203125 220.40625 66.210938 219.398438 66.210938 218.15625 Z M 66.210938 218.15625"/></clipPath><clipPath id="cc0e610154"><path d="M 58 198.605469 L 66.210938 198.605469 L 66.210938 220.40625 L 58 220.40625 Z M 58 198.605469"/></clipPath><clipPath id="985a79e0eb"><path d="M 66.210938 218.15625 L 66.210938 200.644531 C 66.210938 199.402344 65.203125 198.394531 63.960938 198.394531 L 40.332031 198.394531 C 39.089844 198.394531 38.082031 199.402344 38.082031 200.644531 L 38.082031 218.15625 C 38.082031 219.398438 39.089844 220.40625 40.332031 220.40625 L 63.960938 220.40625 C 65.203125 220.40625 66.210938 219.398438 66.210938 218.15625 Z M 66.210938 218.15625"/></clipPath><clipPath id="e0a7551b1a"><path d="M 10.277344 198.5 L 33.9375 198.5 L 33.9375 220.300781 L 10.277344 220.300781 Z M 10.277344 198.5"/></clipPath><clipPath id="f058ed6a27"><path d="M 18.300781 198.5 L 41.957031 198.5 L 41.957031 220.300781 L 18.300781 220.300781 Z M 18.300781 198.5"/></clipPath></defs><g id="d95c816693"><g style="fill:#d2e0f7;fill-opacity:1;"><g transform="translate(76.932165, 217.390629)"><path d="M 6.203125 -31.078125 L 1.125 -31.078125 L 1.125 -39.671875 L 6.203125 -39.671875 L 6.203125 -54.328125 L 16.140625 -54.328125 L 16.140625 -39.671875 L 22.046875 -39.671875 L 22.046875 -31.078125 L 16.140625 -31.078125 L 16.140625 0 L 6.203125 0 Z M 6.203125 -31.078125" style="stroke:none"/></g></g><g style="fill:#d2e0f7;fill-opacity:1;"><g transform="translate(101.58552, 217.390629)"><path d="M 10.015625 -43.109375 C 8.816406 -43.109375 7.734375 -43.421875 6.765625 -44.046875 C 5.796875 -44.671875 5.035156 -45.515625 4.484375 -46.578125 C 3.929688 -47.648438 3.65625 -48.785156 3.65625 -49.984375 C 3.65625 -51.078125 3.941406 -52.097656 4.515625 -53.046875 C 5.085938 -53.992188 5.859375 -54.726562 6.828125 -55.25 C 7.804688 -55.769531 8.867188 -56.03125 10.015625 -56.03125 C 11.210938 -56.03125 12.28125 -55.734375 13.21875 -55.140625 C 14.164062 -54.546875 14.925781 -53.75 15.5 -52.75 C 16.070312 -51.75 16.359375 -50.65625 16.359375 -49.46875 C 16.359375 -48.320312 16.070312 -47.257812 15.5 -46.28125 C 14.925781 -45.3125 14.15625 -44.539062 13.1875 -43.96875 C 12.21875 -43.394531 11.160156 -43.109375 10.015625 -43.109375 Z M 5.078125 -39.671875 L 15.015625 -39.671875 L 15.015625 0 L 5.078125 0 Z M 5.078125 -39.671875" style="stroke:none"/></g></g><g style="fill:#d2e0f7;fill-opacity:1;"><g transform="translate(123.848276, 217.390629)"><path d="M 24.28125 1.046875 C 20.050781 1.046875 16.328125 0.148438 13.109375 -1.640625 C 9.898438 -3.429688 7.410156 -5.894531 5.640625 -9.03125 C 3.867188 -12.175781 2.984375 -15.691406 2.984375 -19.578125 C 2.984375 -23.460938 3.90625 -27.007812 5.75 -30.21875 C 7.59375 -33.4375 10.15625 -35.988281 13.4375 -37.875 C 16.726562 -39.769531 20.441406 -40.71875 24.578125 -40.71875 C 28.410156 -40.71875 31.847656 -40.03125 34.890625 -38.65625 C 37.929688 -37.289062 40.296875 -35.4375 41.984375 -33.09375 L 34.671875 -27.125 C 33.328125 -28.46875 31.84375 -29.5 30.21875 -30.21875 C 28.601562 -30.945312 26.722656 -31.3125 24.578125 -31.3125 C 22.285156 -31.3125 20.253906 -30.785156 18.484375 -29.734375 C 16.722656 -28.691406 15.367188 -27.285156 14.421875 -25.515625 C 13.472656 -23.742188 13 -21.765625 13 -19.578125 C 13 -17.484375 13.457031 -15.578125 14.375 -13.859375 C 15.300781 -12.140625 16.625 -10.796875 18.34375 -9.828125 C 20.0625 -8.859375 22.039062 -8.375 24.28125 -8.375 C 26.425781 -8.375 28.34375 -8.734375 30.03125 -9.453125 C 31.726562 -10.171875 33.273438 -11.226562 34.671875 -12.625 L 41.765625 -6.34375 C 39.867188 -4.050781 37.4375 -2.242188 34.46875 -0.921875 C 31.507812 0.390625 28.113281 1.046875 24.28125 1.046875 Z M 24.28125 1.046875" style="stroke:none"/></g></g><g style="fill:#d2e0f7;fill-opacity:1;"><g transform="translate(170.763893, 217.390629)"><path d="M 5.078125 -55 L 15.015625 -55 L 15.015625 -23.3125 L 29.734375 -39.671875 L 42.140625 -39.671875 L 25.40625 -21 L 44.234375 0 L 31.90625 0 L 15.015625 -18.984375 L 15.015625 0 L 5.078125 0 Z M 5.078125 -55" style="stroke:none"/></g></g><g style="fill:#d2e0f7;fill-opacity:1;"><g transform="translate(213.346203, 217.390629)"><path d="M 23.765625 1.046875 C 19.628906 1.046875 15.988281 0.125 12.84375 -1.71875 C 9.707031 -3.5625 7.28125 -6.078125 5.5625 -9.265625 C 3.84375 -12.453125 2.984375 -15.988281 2.984375 -19.875 C 2.984375 -23.507812 3.828125 -26.921875 5.515625 -30.109375 C 7.210938 -33.296875 9.617188 -35.859375 12.734375 -37.796875 C 15.847656 -39.742188 19.472656 -40.71875 23.609375 -40.71875 C 27.742188 -40.71875 31.40625 -39.796875 34.59375 -37.953125 C 37.78125 -36.109375 40.257812 -33.554688 42.03125 -30.296875 C 43.800781 -27.035156 44.6875 -23.335938 44.6875 -19.203125 C 44.6875 -18.304688 44.660156 -17.5625 44.609375 -16.96875 L 12.625 -16.96875 C 13.125 -14.070312 14.378906 -11.8125 16.390625 -10.1875 C 18.410156 -8.570312 20.867188 -7.765625 23.765625 -7.765625 C 26.003906 -7.765625 27.957031 -8.113281 29.625 -8.8125 C 31.289062 -9.507812 33.019531 -10.628906 34.8125 -12.171875 L 41.921875 -6.28125 C 37.390625 -1.394531 31.335938 1.046875 23.765625 1.046875 Z M 34.671875 -24.8125 C 34.023438 -27.101562 32.71875 -28.921875 30.75 -30.265625 C 28.78125 -31.609375 26.453125 -32.28125 23.765625 -32.28125 C 21.273438 -32.28125 19.109375 -31.65625 17.265625 -30.40625 C 15.421875 -29.164062 14.023438 -27.300781 13.078125 -24.8125 Z M 34.671875 -24.8125" style="stroke:none"/></g></g><g style="fill:#d2e0f7;fill-opacity:1;"><g transform="translate(263.175464, 217.390629)"><path d="M 6.203125 -31.078125 L 1.125 -31.078125 L 1.125 -39.671875 L 6.203125 -39.671875 L 6.203125 -54.328125 L 16.140625 -54.328125 L 16.140625 -39.671875 L 22.046875 -39.671875 L 22.046875 -31.078125 L 16.140625 -31.078125 L 16.140625 0 L 6.203125 0 Z M 6.203125 -31.078125" style="stroke:none"/></g></g><g style="fill:#24b7ff;fill-opacity:1;"><g transform="translate(288.950762, 217.390629)"><path d="M 6.203125 -31.078125 L 1.125 -31.078125 L 1.125 -39.671875 L 6.203125 -39.671875 L 6.203125 -54.328125 L 16.140625 -54.328125 L 16.140625 -39.671875 L 22.046875 -39.671875 L 22.046875 -31.078125 L 16.140625 -31.078125 L 16.140625 0 L 6.203125 0 Z M 6.203125 -31.078125" style="stroke:none"/></g></g><g style="fill:#24b7ff;fill-opacity:1;"><g transform="translate(313.604117, 217.390629)"><path d="M 23.765625 1.046875 C 19.628906 1.046875 15.988281 0.125 12.84375 -1.71875 C 9.707031 -3.5625 7.28125 -6.078125 5.5625 -9.265625 C 3.84375 -12.453125 2.984375 -15.988281 2.984375 -19.875 C 2.984375 -23.507812 3.828125 -26.921875 5.515625 -30.109375 C 7.210938 -33.296875 9.617188 -35.859375 12.734375 -37.796875 C 15.847656 -39.742188 19.472656 -40.71875 23.609375 -40.71875 C 27.742188 -40.71875 31.40625 -39.796875 34.59375 -37.953125 C 37.78125 -36.109375 40.257812 -33.554688 42.03125 -30.296875 C 43.800781 -27.035156 44.6875 -23.335938 44.6875 -19.203125 C 44.6875 -18.304688 44.660156 -17.5625 44.609375 -16.96875 L 12.625 -16.96875 C 13.125 -14.070312 14.378906 -11.8125 16.390625 -10.1875 C 18.410156 -8.570312 20.867188 -7.765625 23.765625 -7.765625 C 26.003906 -7.765625 27.957031 -8.113281 29.625 -8.8125 C 31.289062 -9.507812 33.019531 -10.628906 34.8125 -12.171875 L 41.921875 -6.28125 C 37.390625 -1.394531 31.335938 1.046875 23.765625 1.046875 Z M 34.671875 -24.8125 C 34.023438 -27.101562 32.71875 -28.921875 30.75 -30.265625 C 28.78125 -31.609375 26.453125 -32.28125 23.765625 -32.28125 C 21.273438 -32.28125 19.109375 -31.65625 17.265625 -30.40625 C 15.421875 -29.164062 14.023438 -27.300781 13.078125 -24.8125 Z M 34.671875 -24.8125" style="stroke:none"/></g></g><g clip-path="url(#53a0fde6cc)" clip-rule="nonzero"><g clip-path="url(#347ed50fd0)" clip-rule="nonzero"><path d="M 32.738281 159.640625 C 32.527344 159.671875 32.328125 159.738281 32.144531 159.839844 C 31.957031 159.945312 31.792969 160.078125 31.65625 160.238281 C 31.515625 160.398438 31.410156 160.582031 31.335938 160.78125 C 31.265625 160.980469 31.226562 161.1875 31.230469 161.398438 L 31.230469 166.808594 C 31.230469 167.164062 31.296875 167.503906 31.433594 167.832031 C 31.570312 168.15625 31.761719 168.445312 32.011719 168.695312 C 32.261719 168.949219 32.550781 169.140625 32.878906 169.277344 C 33.207031 169.414062 33.546875 169.480469 33.902344 169.480469 L 57.953125 169.480469 L 57.953125 169.035156 C 57.949219 168.789062 58.035156 168.574219 58.210938 168.398438 C 58.386719 168.222656 58.597656 168.136719 58.84375 168.136719 C 59.09375 168.136719 59.304688 168.222656 59.476562 168.398438 C 59.652344 168.574219 59.738281 168.789062 59.734375 169.035156 L 59.734375 169.480469 L 69.535156 169.480469 C 69.886719 169.480469 70.230469 169.414062 70.554688 169.277344 C 70.882812 169.140625 71.171875 168.949219 71.421875 168.695312 C 71.671875 168.445312 71.867188 168.15625 72.003906 167.832031 C 72.136719 167.503906 72.207031 167.164062 72.207031 166.808594 L 72.207031 161.398438 C 72.207031 161.1875 72.171875 160.980469 72.097656 160.78125 C 72.023438 160.582031 71.917969 160.398438 71.78125 160.238281 C 71.640625 160.078125 71.476562 159.945312 71.292969 159.839844 C 71.105469 159.738281 70.90625 159.671875 70.695312 159.640625 C 70.164062 159.5625 69.664062 159.398438 69.191406 159.144531 C 68.71875 158.886719 68.308594 158.554688 67.953125 158.152344 C 67.601562 157.746094 67.332031 157.289062 67.144531 156.789062 C 66.957031 156.285156 66.863281 155.765625 66.863281 155.226562 C 66.863281 154.691406 66.957031 154.171875 67.144531 153.667969 C 67.332031 153.164062 67.601562 152.710938 67.953125 152.304688 C 68.308594 151.898438 68.71875 151.570312 69.191406 151.3125 C 69.664062 151.054688 70.164062 150.890625 70.695312 150.816406 C 70.90625 150.785156 71.105469 150.71875 71.292969 150.613281 C 71.476562 150.511719 71.640625 150.378906 71.78125 150.21875 C 71.917969 150.054688 72.023438 149.875 72.097656 149.675781 C 72.171875 149.476562 72.207031 149.269531 72.207031 149.054688 L 72.207031 143.648438 C 72.207031 143.292969 72.136719 142.953125 72.003906 142.625 C 71.867188 142.296875 71.671875 142.007812 71.421875 141.757812 C 71.171875 141.507812 70.882812 141.3125 70.554688 141.179688 C 70.230469 141.042969 69.886719 140.972656 69.535156 140.972656 L 59.734375 140.972656 L 59.734375 141.417969 C 59.738281 141.667969 59.652344 141.878906 59.476562 142.054688 C 59.304688 142.230469 59.09375 142.320312 58.84375 142.320312 C 58.597656 142.320312 58.386719 142.230469 58.210938 142.054688 C 58.035156 141.878906 57.949219 141.667969 57.953125 141.417969 L 57.953125 140.972656 L 33.902344 140.972656 C 33.546875 140.972656 33.207031 141.042969 32.878906 141.179688 C 32.550781 141.3125 32.261719 141.507812 32.011719 141.757812 C 31.761719 142.007812 31.570312 142.296875 31.433594 142.625 C 31.296875 142.953125 31.230469 143.292969 31.230469 143.648438 L 31.230469 149.054688 C 31.226562 149.269531 31.265625 149.476562 31.335938 149.675781 C 31.410156 149.875 31.515625 150.054688 31.65625 150.21875 C 31.792969 150.378906 31.957031 150.511719 32.144531 150.613281 C 32.328125 150.71875 32.527344 150.785156 32.738281 150.816406 C 33.269531 150.890625 33.773438 151.054688 34.246094 151.3125 C 34.714844 151.570312 35.128906 151.898438 35.480469 152.304688 C 35.832031 152.710938 36.105469 153.164062 36.292969 153.667969 C 36.480469 154.171875 36.574219 154.691406 36.574219 155.226562 C 36.574219 155.765625 36.480469 156.285156 36.292969 156.789062 C 36.105469 157.289062 35.832031 157.746094 35.480469 158.148438 C 35.128906 158.554688 34.714844 158.886719 34.246094 159.144531 C 33.773438 159.398438 33.269531 159.5625 32.738281 159.640625 Z M 57.953125 145.28125 C 57.949219 145.03125 58.035156 144.820312 58.210938 144.644531 C 58.386719 144.46875 58.597656 144.378906 58.84375 144.378906 C 59.09375 144.378906 59.304688 144.46875 59.476562 144.644531 C 59.652344 144.820312 59.738281 145.03125 59.734375 145.28125 L 59.734375 147.359375 C 59.738281 147.605469 59.652344 147.816406 59.476562 147.992188 C 59.304688 148.167969 59.09375 148.257812 58.84375 148.257812 C 58.597656 148.257812 58.386719 148.167969 58.210938 147.992188 C 58.035156 147.816406 57.949219 147.605469 57.953125 147.359375 Z M 57.953125 151.21875 C 57.949219 150.972656 58.035156 150.757812 58.210938 150.582031 C 58.386719 150.40625 58.597656 150.320312 58.84375 150.320312 C 59.09375 150.320312 59.304688 150.40625 59.476562 150.582031 C 59.652344 150.757812 59.738281 150.972656 59.734375 151.21875 L 59.734375 153.296875 C 59.734375 153.542969 59.644531 153.75 59.472656 153.921875 C 59.296875 154.09375 59.089844 154.179688 58.84375 154.179688 C 58.601562 154.179688 58.390625 154.09375 58.21875 153.921875 C 58.042969 153.75 57.957031 153.542969 57.953125 153.296875 Z M 57.953125 157.15625 C 57.949219 156.910156 58.035156 156.699219 58.210938 156.523438 C 58.386719 156.347656 58.597656 156.257812 58.84375 156.257812 C 59.09375 156.257812 59.304688 156.347656 59.476562 156.523438 C 59.652344 156.699219 59.738281 156.910156 59.734375 157.15625 L 59.734375 159.234375 C 59.738281 159.484375 59.652344 159.695312 59.476562 159.871094 C 59.304688 160.046875 59.09375 160.136719 58.84375 160.136719 C 58.597656 160.136719 58.386719 160.046875 58.210938 159.871094 C 58.035156 159.695312 57.949219 159.484375 57.953125 159.234375 Z M 57.953125 163.097656 C 57.949219 162.847656 58.035156 162.636719 58.210938 162.460938 C 58.386719 162.285156 58.597656 162.195312 58.84375 162.195312 C 59.09375 162.195312 59.304688 162.285156 59.476562 162.460938 C 59.652344 162.636719 59.738281 162.847656 59.734375 163.097656 L 59.734375 165.175781 C 59.738281 165.421875 59.652344 165.632812 59.476562 165.8125 C 59.304688 165.988281 59.09375 166.074219 58.84375 166.074219 C 58.597656 166.074219 58.386719 165.988281 58.210938 165.8125 C 58.035156 165.632812 57.949219 165.421875 57.953125 165.175781 Z M 57.953125 163.097656" style="stroke:none;fill-rule:nonzero;fill:#24b7ff;fill-opacity:1;"/></g></g><g clip-path="url(#98073c0722)" clip-rule="nonzero"><g clip-path="url(#a548c2ba6b)" clip-rule="nonzero"><path d="M 59.734375 145.28125 L 59.734375 147.359375 C 59.734375 147.605469 59.648438 147.8125 59.472656 147.988281 C 59.300781 148.164062 59.089844 148.25 58.84375 148.25 L 58.84375 150.328125 C 59.089844 150.328125 59.300781 150.414062 59.472656 150.589844 C 59.648438 150.761719 59.734375 150.972656 59.734375 151.21875 L 59.734375 153.296875 C 59.734375 153.542969 59.648438 153.753906 59.472656 153.925781 C 59.300781 154.101562 59.089844 154.1875 58.84375 154.1875 L 58.84375 156.265625 C 59.089844 156.265625 59.300781 156.355469 59.472656 156.527344 C 59.648438 156.703125 59.734375 156.910156 59.734375 157.15625 L 59.734375 159.234375 C 59.734375 159.480469 59.648438 159.691406 59.472656 159.867188 C 59.300781 160.039062 59.089844 160.128906 58.84375 160.128906 L 58.84375 162.207031 C 59.089844 162.207031 59.300781 162.292969 59.472656 162.464844 C 59.648438 162.640625 59.734375 162.851562 59.734375 163.097656 L 59.734375 165.175781 C 59.734375 165.421875 59.648438 165.632812 59.472656 165.804688 C 59.300781 165.980469 59.089844 166.066406 58.84375 166.066406 L 58.84375 168.144531 C 59.089844 168.144531 59.300781 168.230469 59.472656 168.40625 C 59.648438 168.578125 59.734375 168.789062 59.734375 169.035156 L 59.734375 169.480469 L 69.535156 169.480469 C 69.886719 169.480469 70.230469 169.414062 70.554688 169.277344 C 70.882812 169.140625 71.171875 168.949219 71.421875 168.695312 C 71.671875 168.445312 71.867188 168.15625 72.003906 167.832031 C 72.136719 167.503906 72.207031 167.164062 72.207031 166.808594 L 72.207031 161.398438 C 72.207031 161.1875 72.171875 160.980469 72.097656 160.78125 C 72.023438 160.582031 71.917969 160.398438 71.78125 160.238281 C 71.640625 160.078125 71.476562 159.945312 71.292969 159.839844 C 71.105469 159.738281 70.90625 159.671875 70.695312 159.640625 C 70.164062 159.5625 69.664062 159.398438 69.191406 159.144531 C 68.71875 158.886719 68.308594 158.554688 67.953125 158.152344 C 67.601562 157.746094 67.332031 157.289062 67.144531 156.789062 C 66.957031 156.285156 66.863281 155.765625 66.863281 155.226562 C 66.863281 154.691406 66.957031 154.171875 67.144531 153.667969 C 67.332031 153.164062 67.601562 152.710938 67.953125 152.304688 C 68.308594 151.898438 68.71875 151.570312 69.191406 151.3125 C 69.664062 151.054688 70.164062 150.890625 70.695312 150.816406 C 70.90625 150.785156 71.105469 150.71875 71.292969 150.613281 C 71.476562 150.511719 71.640625 150.378906 71.78125 150.21875 C 71.917969 150.054688 72.023438 149.875 72.097656 149.675781 C 72.171875 149.476562 72.207031 149.269531 72.207031 149.054688 L 72.207031 143.648438 C 72.207031 143.292969 72.136719 142.953125 72.003906 142.625 C 71.867188 142.296875 71.671875 142.007812 71.421875 141.757812 C 71.171875 141.507812 70.882812 141.3125 70.554688 141.179688 C 70.230469 141.042969 69.886719 140.972656 69.535156 140.972656 L 59.734375 140.972656 L 59.734375 141.417969 C 59.734375 141.664062 59.648438 141.875 59.472656 142.050781 C 59.300781 142.222656 59.089844 142.308594 58.84375 142.308594 L 58.84375 144.390625 C 59.089844 144.390625 59.300781 144.476562 59.472656 144.648438 C 59.648438 144.824219 59.734375 145.035156 59.734375 145.28125 Z M 59.734375 145.28125" style="stroke:none;fill-rule:nonzero;fill:#24b7ff;fill-opacity:1;"/></g></g><g clip-path="url(#4ffb237346)" clip-rule="nonzero"><path d="M 11.8125 158.042969 C 11.601562 158.074219 11.402344 158.140625 11.21875 158.246094 C 11.03125 158.347656 10.871094 158.480469 10.730469 158.640625 C 10.59375 158.804688 10.484375 158.984375 10.414062 159.183594 C 10.339844 159.382812 10.300781 159.589844 10.304688 159.800781 L 10.304688 165.210938 C 10.304688 165.566406 10.371094 165.90625 10.507812 166.234375 C 10.644531 166.5625 10.835938 166.851562 11.085938 167.101562 C 11.335938 167.351562 11.625 167.542969 11.953125 167.679688 C 12.28125 167.816406 12.621094 167.882812 12.976562 167.882812 L 37.027344 167.882812 L 37.027344 167.4375 C 37.027344 167.191406 37.113281 166.980469 37.285156 166.804688 C 37.460938 166.628906 37.671875 166.539062 37.917969 166.539062 C 38.167969 166.539062 38.378906 166.628906 38.550781 166.804688 C 38.726562 166.980469 38.8125 167.191406 38.808594 167.4375 L 38.808594 167.882812 L 48.609375 167.882812 C 48.964844 167.882812 49.304688 167.816406 49.632812 167.679688 C 49.957031 167.542969 50.246094 167.351562 50.496094 167.101562 C 50.75 166.851562 50.941406 166.5625 51.078125 166.234375 C 51.214844 165.90625 51.28125 165.566406 51.28125 165.210938 L 51.28125 159.800781 C 51.28125 159.589844 51.246094 159.382812 51.171875 159.183594 C 51.097656 158.984375 50.992188 158.804688 50.855469 158.640625 C 50.714844 158.480469 50.554688 158.347656 50.367188 158.246094 C 50.179688 158.140625 49.980469 158.074219 49.773438 158.042969 C 49.238281 157.96875 48.738281 157.800781 48.265625 157.546875 C 47.792969 157.289062 47.382812 156.960938 47.027344 156.554688 C 46.675781 156.148438 46.40625 155.695312 46.21875 155.191406 C 46.03125 154.6875 45.9375 154.167969 45.9375 153.632812 C 45.9375 153.09375 46.03125 152.574219 46.21875 152.070312 C 46.40625 151.566406 46.675781 151.113281 47.027344 150.707031 C 47.382812 150.304688 47.792969 149.972656 48.265625 149.714844 C 48.738281 149.460938 49.238281 149.292969 49.773438 149.21875 C 49.980469 149.1875 50.179688 149.121094 50.367188 149.015625 C 50.554688 148.914062 50.714844 148.78125 50.855469 148.621094 C 50.992188 148.457031 51.097656 148.277344 51.171875 148.078125 C 51.246094 147.878906 51.28125 147.671875 51.28125 147.460938 L 51.28125 142.050781 C 51.28125 141.695312 51.214844 141.355469 51.078125 141.027344 C 50.941406 140.699219 50.75 140.410156 50.496094 140.160156 C 50.246094 139.910156 49.957031 139.71875 49.632812 139.582031 C 49.304688 139.445312 48.964844 139.378906 48.609375 139.378906 L 38.808594 139.378906 L 38.808594 139.824219 C 38.8125 140.070312 38.726562 140.28125 38.550781 140.457031 C 38.378906 140.632812 38.167969 140.722656 37.917969 140.722656 C 37.671875 140.722656 37.460938 140.632812 37.285156 140.457031 C 37.113281 140.28125 37.027344 140.070312 37.027344 139.824219 L 37.027344 139.378906 L 12.976562 139.378906 C 12.621094 139.378906 12.28125 139.445312 11.953125 139.582031 C 11.625 139.71875 11.335938 139.910156 11.085938 140.160156 C 10.835938 140.410156 10.644531 140.699219 10.507812 141.027344 C 10.371094 141.355469 10.304688 141.695312 10.304688 142.050781 L 10.304688 147.460938 C 10.300781 147.671875 10.339844 147.878906 10.414062 148.078125 C 10.484375 148.277344 10.59375 148.457031 10.730469 148.621094 C 10.871094 148.78125 11.03125 148.914062 11.21875 149.015625 C 11.402344 149.121094 11.601562 149.1875 11.8125 149.21875 C 12.34375 149.292969 12.847656 149.460938 13.320312 149.714844 C 13.792969 149.972656 14.203125 150.300781 14.554688 150.707031 C 14.90625 151.113281 15.179688 151.566406 15.367188 152.070312 C 15.554688 152.574219 15.648438 153.09375 15.648438 153.628906 C 15.648438 154.167969 15.554688 154.6875 15.367188 155.191406 C 15.179688 155.695312 14.90625 156.148438 14.554688 156.554688 C 14.203125 156.960938 13.792969 157.289062 13.320312 157.546875 C 12.847656 157.800781 12.34375 157.96875 11.8125 158.042969 Z M 37.027344 143.683594 C 37.027344 143.4375 37.113281 143.222656 37.285156 143.046875 C 37.460938 142.871094 37.671875 142.785156 37.917969 142.785156 C 38.167969 142.785156 38.378906 142.871094 38.550781 143.046875 C 38.726562 143.222656 38.8125 143.4375 38.808594 143.683594 L 38.808594 145.761719 C 38.8125 146.007812 38.726562 146.222656 38.550781 146.398438 C 38.378906 146.574219 38.167969 146.660156 37.917969 146.660156 C 37.671875 146.660156 37.460938 146.574219 37.285156 146.398438 C 37.113281 146.222656 37.027344 146.007812 37.027344 145.761719 Z M 37.027344 149.621094 C 37.027344 149.375 37.113281 149.164062 37.285156 148.988281 C 37.460938 148.8125 37.671875 148.722656 37.917969 148.722656 C 38.167969 148.722656 38.378906 148.8125 38.550781 148.988281 C 38.726562 149.164062 38.8125 149.375 38.808594 149.621094 L 38.808594 151.699219 C 38.808594 151.945312 38.71875 152.152344 38.546875 152.324219 C 38.371094 152.496094 38.164062 152.582031 37.917969 152.582031 C 37.675781 152.582031 37.464844 152.496094 37.292969 152.324219 C 37.117188 152.152344 37.03125 151.945312 37.027344 151.699219 Z M 37.027344 155.5625 C 37.027344 155.3125 37.113281 155.101562 37.285156 154.925781 C 37.460938 154.75 37.671875 154.660156 37.917969 154.660156 C 38.167969 154.660156 38.378906 154.75 38.550781 154.925781 C 38.726562 155.101562 38.8125 155.3125 38.808594 155.5625 L 38.808594 157.640625 C 38.8125 157.886719 38.726562 158.097656 38.550781 158.273438 C 38.378906 158.449219 38.167969 158.539062 37.917969 158.539062 C 37.671875 158.539062 37.460938 158.449219 37.285156 158.273438 C 37.113281 158.097656 37.027344 157.886719 37.027344 157.640625 Z M 37.027344 161.5 C 37.027344 161.253906 37.113281 161.039062 37.285156 160.863281 C 37.460938 160.6875 37.671875 160.601562 37.917969 160.601562 C 38.167969 160.601562 38.378906 160.6875 38.550781 160.863281 C 38.726562 161.039062 38.8125 161.253906 38.808594 161.5 L 38.808594 163.578125 C 38.8125 163.828125 38.726562 164.039062 38.550781 164.214844 C 38.378906 164.390625 38.167969 164.476562 37.917969 164.476562 C 37.671875 164.476562 37.460938 164.390625 37.285156 164.214844 C 37.113281 164.039062 37.027344 163.828125 37.027344 163.578125 Z M 37.027344 161.5" style="stroke:none;fill-rule:nonzero;fill:#24b7ff;fill-opacity:1;"/></g><g clip-path="url(#564a6b35de)" clip-rule="nonzero"><path d="M 19.832031 159.566406 C 19.625 159.597656 19.425781 159.664062 19.238281 159.765625 C 19.050781 159.871094 18.890625 160.003906 18.75 160.164062 C 18.613281 160.324219 18.507812 160.507812 18.433594 160.707031 C 18.359375 160.90625 18.324219 161.113281 18.324219 161.324219 L 18.324219 166.734375 C 18.324219 167.089844 18.390625 167.429688 18.527344 167.757812 C 18.664062 168.082031 18.855469 168.371094 19.109375 168.621094 C 19.359375 168.875 19.648438 169.066406 19.972656 169.203125 C 20.300781 169.339844 20.640625 169.40625 20.996094 169.40625 L 45.050781 169.40625 L 45.050781 168.960938 C 45.046875 168.714844 45.132812 168.5 45.308594 168.324219 C 45.480469 168.148438 45.691406 168.0625 45.941406 168.0625 C 46.1875 168.0625 46.398438 168.148438 46.574219 168.324219 C 46.746094 168.5 46.832031 168.714844 46.832031 168.960938 L 46.832031 169.40625 L 56.628906 169.40625 C 56.984375 169.40625 57.324219 169.339844 57.652344 169.203125 C 57.980469 169.066406 58.269531 168.875 58.519531 168.621094 C 58.769531 168.371094 58.960938 168.082031 59.097656 167.757812 C 59.234375 167.429688 59.300781 167.089844 59.300781 166.734375 L 59.300781 161.324219 C 59.304688 161.113281 59.265625 160.90625 59.191406 160.707031 C 59.121094 160.507812 59.011719 160.324219 58.875 160.164062 C 58.734375 160.003906 58.574219 159.871094 58.386719 159.765625 C 58.203125 159.664062 58.003906 159.597656 57.792969 159.566406 C 57.261719 159.492188 56.757812 159.324219 56.285156 159.070312 C 55.8125 158.8125 55.402344 158.480469 55.050781 158.078125 C 54.699219 157.671875 54.425781 157.214844 54.238281 156.714844 C 54.050781 156.210938 53.957031 155.691406 53.957031 155.152344 C 53.957031 154.617188 54.050781 154.097656 54.238281 153.59375 C 54.425781 153.089844 54.699219 152.636719 55.050781 152.230469 C 55.402344 151.824219 55.8125 151.496094 56.285156 151.238281 C 56.757812 150.980469 57.261719 150.816406 57.792969 150.742188 C 58.003906 150.710938 58.203125 150.644531 58.386719 150.539062 C 58.574219 150.4375 58.734375 150.304688 58.875 150.144531 C 59.011719 149.980469 59.121094 149.800781 59.191406 149.601562 C 59.265625 149.402344 59.304688 149.195312 59.300781 148.980469 L 59.300781 143.574219 C 59.300781 143.21875 59.234375 142.878906 59.097656 142.550781 C 58.960938 142.222656 58.769531 141.933594 58.519531 141.683594 C 58.269531 141.433594 57.980469 141.238281 57.652344 141.105469 C 57.324219 140.96875 56.984375 140.898438 56.628906 140.898438 L 46.832031 140.898438 L 46.832031 141.34375 C 46.832031 141.59375 46.746094 141.804688 46.574219 141.980469 C 46.398438 142.15625 46.1875 142.246094 45.941406 142.246094 C 45.691406 142.246094 45.480469 142.15625 45.308594 141.980469 C 45.132812 141.804688 45.046875 141.59375 45.050781 141.34375 L 45.050781 140.898438 L 20.996094 140.898438 C 20.640625 140.898438 20.300781 140.96875 19.972656 141.105469 C 19.648438 141.238281 19.359375 141.433594 19.109375 141.683594 C 18.855469 141.933594 18.664062 142.222656 18.527344 142.550781 C 18.390625 142.878906 18.324219 143.21875 18.324219 143.574219 L 18.324219 148.980469 C 18.324219 149.195312 18.359375 149.402344 18.433594 149.601562 C 18.507812 149.800781 18.613281 149.980469 18.75 150.144531 C 18.890625 150.304688 19.050781 150.4375 19.238281 150.539062 C 19.425781 150.644531 19.625 150.710938 19.832031 150.742188 C 20.367188 150.816406 20.867188 150.980469 21.339844 151.238281 C 21.8125 151.496094 22.222656 151.824219 22.578125 152.230469 C 22.929688 152.636719 23.199219 153.089844 23.386719 153.59375 C 23.574219 154.097656 23.667969 154.617188 23.667969 155.152344 C 23.667969 155.691406 23.574219 156.210938 23.386719 156.714844 C 23.199219 157.214844 22.929688 157.671875 22.578125 158.074219 C 22.222656 158.480469 21.8125 158.8125 21.339844 159.070312 C 20.867188 159.324219 20.367188 159.488281 19.832031 159.566406 Z M 45.050781 145.207031 C 45.046875 144.957031 45.132812 144.746094 45.308594 144.570312 C 45.480469 144.394531 45.691406 144.304688 45.941406 144.304688 C 46.1875 144.304688 46.398438 144.394531 46.574219 144.570312 C 46.746094 144.746094 46.832031 144.957031 46.832031 145.207031 L 46.832031 147.285156 C 46.832031 147.53125 46.746094 147.742188 46.574219 147.917969 C 46.398438 148.09375 46.1875 148.183594 45.941406 148.183594 C 45.691406 148.183594 45.480469 148.09375 45.308594 147.917969 C 45.132812 147.742188 45.046875 147.53125 45.050781 147.285156 Z M 45.050781 151.144531 C 45.046875 150.898438 45.132812 150.683594 45.308594 150.507812 C 45.480469 150.332031 45.691406 150.246094 45.941406 150.246094 C 46.1875 150.246094 46.398438 150.332031 46.574219 150.507812 C 46.746094 150.683594 46.832031 150.898438 46.832031 151.144531 L 46.832031 153.222656 C 46.828125 153.46875 46.742188 153.675781 46.566406 153.847656 C 46.394531 154.019531 46.183594 154.105469 45.941406 154.105469 C 45.695312 154.105469 45.488281 154.019531 45.3125 153.847656 C 45.140625 153.675781 45.050781 153.46875 45.050781 153.222656 Z M 45.050781 157.082031 C 45.046875 156.835938 45.132812 156.625 45.308594 156.449219 C 45.480469 156.273438 45.691406 156.183594 45.941406 156.183594 C 46.1875 156.183594 46.398438 156.273438 46.574219 156.449219 C 46.746094 156.625 46.832031 156.835938 46.832031 157.082031 L 46.832031 159.160156 C 46.832031 159.410156 46.746094 159.621094 46.574219 159.796875 C 46.398438 159.972656 46.1875 160.0625 45.941406 160.0625 C 45.691406 160.0625 45.480469 159.972656 45.308594 159.796875 C 45.132812 159.621094 45.046875 159.410156 45.050781 159.160156 Z M 45.050781 163.023438 C 45.046875 162.773438 45.132812 162.5625 45.308594 162.386719 C 45.480469 162.210938 45.691406 162.121094 45.941406 162.121094 C 46.1875 162.121094 46.398438 162.210938 46.574219 162.386719 C 46.746094 162.5625 46.832031 162.773438 46.832031 163.023438 L 46.832031 165.101562 C 46.832031 165.347656 46.746094 165.558594 46.574219 165.738281 C 46.398438 165.914062 46.1875 166 45.941406 166 C 45.691406 166 45.480469 165.914062 45.308594 165.738281 C 45.132812 165.558594 45.046875 165.347656 45.050781 165.101562 Z M 45.050781 163.023438" style="stroke:none;fill-rule:nonzero;fill:#24b7ff;fill-opacity:1;"/></g><g clip-path="url(#b2f248c42e)" clip-rule="nonzero"><g clip-path="url(#f54182da89)" clip-rule="nonzero"><path d="M 19.511719 187.371094 C 19.304688 187.402344 19.105469 187.46875 18.917969 187.570312 C 18.730469 187.675781 18.570312 187.808594 18.429688 187.96875 C 18.292969 188.128906 18.1875 188.3125 18.113281 188.511719 C 18.039062 188.710938 18.003906 188.917969 18.003906 189.128906 L 18.003906 194.539062 C 18.003906 194.894531 18.070312 195.234375 18.207031 195.5625 C 18.34375 195.886719 18.535156 196.175781 18.789062 196.425781 C 19.039062 196.679688 19.328125 196.871094 19.652344 197.007812 C 19.980469 197.144531 20.320312 197.210938 20.675781 197.210938 L 44.730469 197.210938 L 44.730469 196.765625 C 44.726562 196.519531 44.8125 196.304688 44.988281 196.128906 C 45.160156 195.953125 45.371094 195.867188 45.621094 195.867188 C 45.867188 195.867188 46.078125 195.953125 46.253906 196.128906 C 46.425781 196.304688 46.511719 196.519531 46.511719 196.765625 L 46.511719 197.210938 L 56.308594 197.210938 C 56.664062 197.210938 57.003906 197.144531 57.332031 197.007812 C 57.660156 196.871094 57.949219 196.679688 58.199219 196.425781 C 58.449219 196.175781 58.640625 195.886719 58.777344 195.5625 C 58.914062 195.234375 58.980469 194.894531 58.980469 194.539062 L 58.980469 189.128906 C 58.984375 188.917969 58.945312 188.710938 58.871094 188.511719 C 58.800781 188.3125 58.691406 188.128906 58.554688 187.96875 C 58.414062 187.808594 58.253906 187.675781 58.066406 187.570312 C 57.882812 187.46875 57.683594 187.402344 57.472656 187.371094 C 56.941406 187.296875 56.4375 187.128906 55.964844 186.875 C 55.492188 186.617188 55.082031 186.285156 54.730469 185.882812 C 54.378906 185.476562 54.105469 185.019531 53.917969 184.519531 C 53.730469 184.015625 53.636719 183.496094 53.636719 182.957031 C 53.636719 182.421875 53.730469 181.902344 53.917969 181.398438 C 54.105469 180.894531 54.378906 180.441406 54.730469 180.035156 C 55.082031 179.628906 55.492188 179.300781 55.964844 179.042969 C 56.4375 178.785156 56.941406 178.621094 57.472656 178.546875 C 57.683594 178.515625 57.882812 178.449219 58.066406 178.34375 C 58.253906 178.242188 58.414062 178.109375 58.554688 177.949219 C 58.691406 177.785156 58.800781 177.605469 58.871094 177.40625 C 58.945312 177.207031 58.984375 177 58.980469 176.785156 L 58.980469 171.378906 C 58.980469 171.023438 58.914062 170.683594 58.777344 170.355469 C 58.640625 170.027344 58.449219 169.738281 58.199219 169.488281 C 57.949219 169.238281 57.660156 169.042969 57.332031 168.910156 C 57.003906 168.773438 56.664062 168.703125 56.308594 168.703125 L 46.511719 168.703125 L 46.511719 169.148438 C 46.511719 169.398438 46.425781 169.609375 46.253906 169.785156 C 46.078125 169.960938 45.867188 170.050781 45.621094 170.050781 C 45.371094 170.050781 45.160156 169.960938 44.988281 169.785156 C 44.8125 169.609375 44.726562 169.398438 44.730469 169.148438 L 44.730469 168.703125 L 20.675781 168.703125 C 20.320312 168.703125 19.980469 168.773438 19.652344 168.910156 C 19.328125 169.042969 19.039062 169.238281 18.789062 169.488281 C 18.535156 169.738281 18.34375 170.027344 18.207031 170.355469 C 18.070312 170.683594 18.003906 171.023438 18.003906 171.378906 L 18.003906 176.785156 C 18.003906 177 18.039062 177.207031 18.113281 177.40625 C 18.1875 177.605469 18.292969 177.785156 18.429688 177.949219 C 18.570312 178.109375 18.730469 178.242188 18.917969 178.34375 C 19.105469 178.449219 19.304688 178.515625 19.511719 178.546875 C 20.046875 178.621094 20.546875 178.785156 21.019531 179.042969 C 21.492188 179.300781 21.902344 179.628906 22.257812 180.035156 C 22.609375 180.441406 22.878906 180.894531 23.066406 181.398438 C 23.253906 181.902344 23.347656 182.421875 23.347656 182.957031 C 23.347656 183.496094 23.253906 184.015625 23.066406 184.519531 C 22.878906 185.019531 22.609375 185.476562 22.257812 185.878906 C 21.902344 186.285156 21.492188 186.617188 21.019531 186.875 C 20.546875 187.128906 20.046875 187.292969 19.511719 187.371094 Z M 44.730469 173.011719 C 44.726562 172.761719 44.8125 172.550781 44.988281 172.375 C 45.160156 172.199219 45.371094 172.109375 45.621094 172.109375 C 45.867188 172.109375 46.078125 172.199219 46.253906 172.375 C 46.425781 172.550781 46.511719 172.761719 46.511719 173.011719 L 46.511719 175.089844 C 46.511719 175.335938 46.425781 175.546875 46.253906 175.722656 C 46.078125 175.902344 45.867188 175.988281 45.621094 175.988281 C 45.371094 175.988281 45.160156 175.902344 44.988281 175.722656 C 44.8125 175.546875 44.726562 175.335938 44.730469 175.089844 Z M 44.730469 178.949219 C 44.726562 178.703125 44.8125 178.488281 44.988281 178.3125 C 45.160156 178.136719 45.371094 178.050781 45.621094 178.050781 C 45.867188 178.050781 46.078125 178.136719 46.253906 178.3125 C 46.425781 178.488281 46.511719 178.703125 46.511719 178.949219 L 46.511719 181.027344 C 46.507812 181.273438 46.417969 181.480469 46.246094 181.652344 C 46.074219 181.824219 45.863281 181.910156 45.621094 181.910156 C 45.375 181.910156 45.167969 181.824219 44.992188 181.652344 C 44.820312 181.480469 44.730469 181.273438 44.730469 181.027344 Z M 44.730469 184.886719 C 44.726562 184.640625 44.8125 184.429688 44.988281 184.253906 C 45.160156 184.078125 45.371094 183.988281 45.621094 183.988281 C 45.867188 183.988281 46.078125 184.078125 46.253906 184.253906 C 46.425781 184.429688 46.511719 184.640625 46.511719 184.886719 L 46.511719 186.964844 C 46.511719 187.214844 46.425781 187.425781 46.253906 187.601562 C 46.078125 187.777344 45.867188 187.867188 45.621094 187.867188 C 45.371094 187.867188 45.160156 187.777344 44.988281 187.601562 C 44.8125 187.425781 44.726562 187.214844 44.730469 186.964844 Z M 44.730469 190.828125 C 44.726562 190.578125 44.8125 190.367188 44.988281 190.191406 C 45.160156 190.015625 45.371094 189.925781 45.621094 189.925781 C 45.867188 189.925781 46.078125 190.015625 46.253906 190.191406 C 46.425781 190.367188 46.511719 190.578125 46.511719 190.828125 L 46.511719 192.90625 C 46.511719 193.152344 46.425781 193.363281 46.253906 193.542969 C 46.078125 193.71875 45.867188 193.804688 45.621094 193.804688 C 45.371094 193.804688 45.160156 193.71875 44.988281 193.542969 C 44.8125 193.363281 44.726562 193.152344 44.730469 192.90625 Z M 44.730469 190.828125" style="stroke:none;fill-rule:nonzero;fill:#d2e0f7;fill-opacity:1;"/></g></g><g clip-path="url(#e17ea7fd27)" clip-rule="nonzero"><g clip-path="url(#cef50c5733)" clip-rule="nonzero"><path d="M 46.511719 173.011719 L 46.511719 175.089844 C 46.511719 175.335938 46.421875 175.546875 46.25 175.71875 C 46.074219 175.894531 45.867188 175.980469 45.621094 175.980469 L 45.621094 178.058594 C 45.867188 178.058594 46.074219 178.144531 46.25 178.320312 C 46.421875 178.492188 46.511719 178.703125 46.511719 178.949219 L 46.511719 181.027344 C 46.511719 181.273438 46.421875 181.484375 46.25 181.65625 C 46.074219 181.832031 45.867188 181.917969 45.621094 181.917969 L 45.621094 183.996094 C 45.867188 183.996094 46.074219 184.085938 46.25 184.257812 C 46.421875 184.433594 46.511719 184.640625 46.511719 184.886719 L 46.511719 186.964844 C 46.511719 187.210938 46.421875 187.421875 46.25 187.597656 C 46.074219 187.769531 45.867188 187.859375 45.621094 187.859375 L 45.621094 189.9375 C 45.867188 189.9375 46.074219 190.023438 46.25 190.195312 C 46.421875 190.371094 46.511719 190.582031 46.511719 190.828125 L 46.511719 192.90625 C 46.511719 193.152344 46.421875 193.363281 46.25 193.535156 C 46.074219 193.710938 45.867188 193.796875 45.621094 193.796875 L 45.621094 195.875 C 45.867188 195.875 46.074219 195.960938 46.25 196.136719 C 46.421875 196.308594 46.511719 196.519531 46.511719 196.765625 L 46.511719 197.210938 L 56.308594 197.210938 C 56.664062 197.210938 57.003906 197.144531 57.332031 197.007812 C 57.660156 196.871094 57.949219 196.679688 58.199219 196.425781 C 58.449219 196.175781 58.640625 195.886719 58.777344 195.5625 C 58.914062 195.234375 58.980469 194.894531 58.980469 194.539062 L 58.980469 189.128906 C 58.984375 188.917969 58.945312 188.710938 58.871094 188.511719 C 58.800781 188.3125 58.691406 188.128906 58.554688 187.96875 C 58.414062 187.808594 58.253906 187.675781 58.066406 187.570312 C 57.882812 187.46875 57.683594 187.402344 57.472656 187.371094 C 56.941406 187.296875 56.4375 187.128906 55.964844 186.875 C 55.492188 186.617188 55.082031 186.285156 54.730469 185.882812 C 54.378906 185.476562 54.105469 185.019531 53.917969 184.519531 C 53.730469 184.015625 53.636719 183.496094 53.636719 182.957031 C 53.636719 182.421875 53.730469 181.902344 53.917969 181.398438 C 54.105469 180.894531 54.378906 180.441406 54.730469 180.035156 C 55.082031 179.628906 55.492188 179.300781 55.964844 179.042969 C 56.4375 178.785156 56.941406 178.621094 57.472656 178.546875 C 57.683594 178.515625 57.882812 178.449219 58.066406 178.34375 C 58.253906 178.242188 58.414062 178.109375 58.554688 177.949219 C 58.691406 177.785156 58.800781 177.605469 58.871094 177.40625 C 58.945312 177.207031 58.984375 177 58.980469 176.785156 L 58.980469 171.378906 C 58.980469 171.023438 58.914062 170.683594 58.777344 170.355469 C 58.640625 170.027344 58.449219 169.738281 58.199219 169.488281 C 57.949219 169.238281 57.660156 169.042969 57.332031 168.910156 C 57.003906 168.773438 56.664062 168.703125 56.308594 168.703125 L 46.511719 168.703125 L 46.511719 169.148438 C 46.511719 169.394531 46.421875 169.605469 46.25 169.78125 C 46.074219 169.953125 45.867188 170.039062 45.621094 170.039062 L 45.621094 172.121094 C 45.867188 172.121094 46.074219 172.207031 46.25 172.378906 C 46.421875 172.554688 46.511719 172.765625 46.511719 173.011719 Z M 46.511719 173.011719" style="stroke:none;fill-rule:nonzero;fill:#d2e0f7;fill-opacity:1;"/></g></g><g clip-path="url(#0da1fdf5a9)" clip-rule="nonzero"><path d="M 18.890625 185.863281 C 18.679688 185.894531 18.480469 185.960938 18.292969 186.066406 C 18.109375 186.167969 17.945312 186.300781 17.808594 186.460938 C 17.667969 186.625 17.5625 186.804688 17.488281 187.003906 C 17.414062 187.203125 17.378906 187.410156 17.378906 187.625 L 17.378906 193.03125 C 17.378906 193.386719 17.449219 193.726562 17.582031 194.054688 C 17.71875 194.382812 17.914062 194.671875 18.164062 194.921875 C 18.414062 195.171875 18.703125 195.363281 19.03125 195.5 C 19.355469 195.636719 19.699219 195.703125 20.050781 195.703125 L 44.105469 195.703125 L 44.105469 195.257812 C 44.101562 195.011719 44.1875 194.800781 44.363281 194.625 C 44.535156 194.449219 44.746094 194.359375 44.996094 194.359375 C 45.242188 194.359375 45.453125 194.449219 45.628906 194.625 C 45.800781 194.800781 45.886719 195.011719 45.886719 195.257812 L 45.886719 195.703125 L 55.683594 195.703125 C 56.039062 195.703125 56.378906 195.636719 56.707031 195.5 C 57.035156 195.363281 57.324219 195.171875 57.574219 194.921875 C 57.824219 194.671875 58.019531 194.382812 58.152344 194.054688 C 58.289062 193.726562 58.355469 193.386719 58.359375 193.03125 L 58.359375 187.625 C 58.359375 187.410156 58.320312 187.203125 58.25 187.003906 C 58.175781 186.804688 58.070312 186.625 57.929688 186.460938 C 57.792969 186.300781 57.628906 186.167969 57.441406 186.066406 C 57.257812 185.960938 57.058594 185.894531 56.847656 185.863281 C 56.316406 185.789062 55.8125 185.625 55.34375 185.367188 C 54.871094 185.109375 54.457031 184.78125 54.105469 184.375 C 53.753906 183.96875 53.484375 183.515625 53.292969 183.011719 C 53.105469 182.507812 53.011719 181.988281 53.011719 181.453125 C 53.011719 180.914062 53.105469 180.394531 53.292969 179.890625 C 53.484375 179.386719 53.753906 178.933594 54.105469 178.527344 C 54.457031 178.125 54.871094 177.792969 55.34375 177.535156 C 55.8125 177.28125 56.316406 177.113281 56.847656 177.039062 C 57.058594 177.007812 57.257812 176.941406 57.441406 176.839844 C 57.628906 176.734375 57.792969 176.601562 57.929688 176.441406 C 58.070312 176.28125 58.175781 176.097656 58.25 175.898438 C 58.320312 175.699219 58.359375 175.492188 58.359375 175.28125 L 58.359375 169.871094 C 58.355469 169.515625 58.289062 169.175781 58.152344 168.847656 C 58.019531 168.519531 57.824219 168.234375 57.574219 167.980469 C 57.324219 167.730469 57.035156 167.539062 56.707031 167.402344 C 56.378906 167.265625 56.039062 167.199219 55.683594 167.199219 L 45.886719 167.199219 L 45.886719 167.644531 C 45.886719 167.890625 45.800781 168.101562 45.628906 168.277344 C 45.453125 168.453125 45.242188 168.542969 44.996094 168.542969 C 44.746094 168.542969 44.535156 168.453125 44.363281 168.277344 C 44.1875 168.101562 44.101562 167.890625 44.105469 167.644531 L 44.105469 167.199219 L 20.050781 167.199219 C 19.699219 167.199219 19.355469 167.265625 19.03125 167.402344 C 18.703125 167.539062 18.414062 167.730469 18.164062 167.980469 C 17.914062 168.234375 17.71875 168.519531 17.582031 168.847656 C 17.449219 169.175781 17.378906 169.515625 17.378906 169.871094 L 17.378906 175.28125 C 17.378906 175.492188 17.414062 175.699219 17.488281 175.898438 C 17.5625 176.097656 17.667969 176.28125 17.808594 176.441406 C 17.945312 176.601562 18.109375 176.734375 18.292969 176.839844 C 18.480469 176.941406 18.679688 177.007812 18.890625 177.039062 C 19.421875 177.113281 19.921875 177.28125 20.394531 177.535156 C 20.867188 177.792969 21.28125 178.125 21.632812 178.527344 C 21.984375 178.933594 22.253906 179.386719 22.441406 179.890625 C 22.628906 180.394531 22.726562 180.914062 22.726562 181.453125 C 22.726562 181.988281 22.628906 182.507812 22.441406 183.011719 C 22.253906 183.515625 21.984375 183.96875 21.632812 184.375 C 21.28125 184.78125 20.867188 185.109375 20.394531 185.367188 C 19.921875 185.621094 19.421875 185.789062 18.890625 185.863281 Z M 44.105469 171.503906 C 44.101562 171.257812 44.1875 171.042969 44.363281 170.867188 C 44.535156 170.691406 44.746094 170.605469 44.996094 170.605469 C 45.242188 170.605469 45.453125 170.691406 45.628906 170.867188 C 45.800781 171.042969 45.886719 171.257812 45.886719 171.503906 L 45.886719 173.582031 C 45.886719 173.832031 45.800781 174.042969 45.628906 174.21875 C 45.453125 174.394531 45.242188 174.480469 44.996094 174.480469 C 44.746094 174.480469 44.535156 174.394531 44.363281 174.21875 C 44.1875 174.042969 44.101562 173.832031 44.105469 173.582031 Z M 44.105469 177.441406 C 44.101562 177.195312 44.1875 176.984375 44.363281 176.808594 C 44.535156 176.632812 44.746094 176.542969 44.996094 176.542969 C 45.242188 176.542969 45.453125 176.632812 45.628906 176.808594 C 45.800781 176.984375 45.886719 177.195312 45.886719 177.441406 L 45.886719 179.523438 C 45.882812 179.765625 45.796875 179.972656 45.621094 180.144531 C 45.449219 180.316406 45.238281 180.402344 44.996094 180.402344 C 44.75 180.402344 44.542969 180.316406 44.367188 180.144531 C 44.195312 179.972656 44.105469 179.765625 44.105469 179.523438 Z M 44.105469 183.382812 C 44.101562 183.132812 44.1875 182.921875 44.363281 182.746094 C 44.535156 182.570312 44.746094 182.484375 44.996094 182.484375 C 45.242188 182.484375 45.453125 182.570312 45.628906 182.746094 C 45.800781 182.921875 45.886719 183.132812 45.886719 183.382812 L 45.886719 185.460938 C 45.886719 185.707031 45.800781 185.921875 45.628906 186.097656 C 45.453125 186.273438 45.242188 186.359375 44.996094 186.359375 C 44.746094 186.359375 44.535156 186.273438 44.363281 186.097656 C 44.1875 185.921875 44.101562 185.707031 44.105469 185.460938 Z M 44.105469 189.320312 C 44.101562 189.074219 44.1875 188.863281 44.363281 188.683594 C 44.535156 188.507812 44.746094 188.421875 44.996094 188.421875 C 45.242188 188.421875 45.453125 188.507812 45.628906 188.683594 C 45.800781 188.863281 45.886719 189.074219 45.886719 189.320312 L 45.886719 191.398438 C 45.886719 191.648438 45.800781 191.859375 45.628906 192.035156 C 45.453125 192.210938 45.242188 192.296875 44.996094 192.296875 C 44.746094 192.296875 44.535156 192.210938 44.363281 192.035156 C 44.1875 191.859375 44.101562 191.648438 44.105469 191.398438 Z M 44.105469 189.320312" style="stroke:none;fill-rule:nonzero;fill:#d2e0f7;fill-opacity:1;"/></g><g clip-path="url(#b38cdb732d)" clip-rule="nonzero"><g clip-path="url(#ed4a427574)" clip-rule="nonzero"><path d="M 11.8125 185.863281 C 11.601562 185.894531 11.402344 185.960938 11.21875 186.066406 C 11.03125 186.167969 10.871094 186.300781 10.730469 186.460938 C 10.59375 186.625 10.484375 186.804688 10.414062 187.003906 C 10.339844 187.203125 10.300781 187.410156 10.304688 187.625 L 10.304688 193.03125 C 10.304688 193.386719 10.371094 193.726562 10.507812 194.054688 C 10.644531 194.382812 10.835938 194.671875 11.085938 194.921875 C 11.335938 195.171875 11.625 195.363281 11.953125 195.5 C 12.28125 195.636719 12.621094 195.703125 12.976562 195.703125 L 37.027344 195.703125 L 37.027344 195.257812 C 37.027344 195.011719 37.113281 194.800781 37.285156 194.625 C 37.460938 194.449219 37.671875 194.359375 37.917969 194.359375 C 38.167969 194.359375 38.378906 194.449219 38.550781 194.625 C 38.726562 194.800781 38.8125 195.011719 38.808594 195.257812 L 38.808594 195.703125 L 48.609375 195.703125 C 48.964844 195.703125 49.304688 195.636719 49.632812 195.5 C 49.957031 195.363281 50.246094 195.171875 50.496094 194.921875 C 50.75 194.671875 50.941406 194.382812 51.078125 194.054688 C 51.214844 193.726562 51.28125 193.386719 51.28125 193.03125 L 51.28125 187.625 C 51.28125 187.410156 51.246094 187.203125 51.171875 187.003906 C 51.097656 186.804688 50.992188 186.625 50.855469 186.460938 C 50.714844 186.300781 50.554688 186.167969 50.367188 186.066406 C 50.179688 185.960938 49.980469 185.894531 49.773438 185.863281 C 49.238281 185.789062 48.738281 185.625 48.265625 185.367188 C 47.792969 185.109375 47.382812 184.78125 47.027344 184.375 C 46.675781 183.96875 46.40625 183.515625 46.21875 183.011719 C 46.03125 182.507812 45.9375 181.988281 45.9375 181.453125 C 45.9375 180.914062 46.03125 180.394531 46.21875 179.890625 C 46.40625 179.386719 46.675781 178.933594 47.027344 178.527344 C 47.382812 178.125 47.792969 177.792969 48.265625 177.535156 C 48.738281 177.28125 49.238281 177.113281 49.773438 177.039062 C 49.980469 177.007812 50.179688 176.941406 50.367188 176.839844 C 50.554688 176.734375 50.714844 176.601562 50.855469 176.441406 C 50.992188 176.28125 51.097656 176.097656 51.171875 175.898438 C 51.246094 175.699219 51.28125 175.492188 51.28125 175.28125 L 51.28125 169.871094 C 51.28125 169.515625 51.214844 169.175781 51.078125 168.847656 C 50.941406 168.519531 50.75 168.234375 50.496094 167.980469 C 50.246094 167.730469 49.957031 167.539062 49.632812 167.402344 C 49.304688 167.265625 48.964844 167.199219 48.609375 167.199219 L 38.808594 167.199219 L 38.808594 167.644531 C 38.8125 167.890625 38.726562 168.101562 38.550781 168.277344 C 38.378906 168.453125 38.167969 168.542969 37.917969 168.542969 C 37.671875 168.542969 37.460938 168.453125 37.285156 168.277344 C 37.113281 168.101562 37.027344 167.890625 37.027344 167.644531 L 37.027344 167.199219 L 12.976562 167.199219 C 12.621094 167.199219 12.28125 167.265625 11.953125 167.402344 C 11.625 167.539062 11.335938 167.730469 11.085938 167.980469 C 10.835938 168.234375 10.644531 168.519531 10.507812 168.847656 C 10.371094 169.175781 10.304688 169.515625 10.304688 169.871094 L 10.304688 175.28125 C 10.300781 175.492188 10.339844 175.699219 10.414062 175.898438 C 10.484375 176.097656 10.59375 176.28125 10.730469 176.441406 C 10.871094 176.601562 11.03125 176.734375 11.21875 176.839844 C 11.402344 176.941406 11.601562 177.007812 11.8125 177.039062 C 12.34375 177.113281 12.847656 177.28125 13.320312 177.535156 C 13.792969 177.792969 14.203125 178.125 14.554688 178.527344 C 14.90625 178.933594 15.179688 179.386719 15.367188 179.890625 C 15.554688 180.394531 15.648438 180.914062 15.648438 181.453125 C 15.648438 181.988281 15.554688 182.507812 15.367188 183.011719 C 15.179688 183.515625 14.90625 183.96875 14.554688 184.375 C 14.203125 184.78125 13.792969 185.109375 13.320312 185.367188 C 12.847656 185.621094 12.34375 185.789062 11.8125 185.863281 Z M 37.027344 171.503906 C 37.027344 171.257812 37.113281 171.042969 37.285156 170.867188 C 37.460938 170.691406 37.671875 170.605469 37.917969 170.605469 C 38.167969 170.605469 38.378906 170.691406 38.550781 170.867188 C 38.726562 171.042969 38.8125 171.257812 38.808594 171.503906 L 38.808594 173.582031 C 38.8125 173.832031 38.726562 174.042969 38.550781 174.21875 C 38.378906 174.394531 38.167969 174.480469 37.917969 174.480469 C 37.671875 174.480469 37.460938 174.394531 37.285156 174.21875 C 37.113281 174.042969 37.027344 173.832031 37.027344 173.582031 Z M 37.027344 177.441406 C 37.027344 177.195312 37.113281 176.984375 37.285156 176.808594 C 37.460938 176.632812 37.671875 176.542969 37.917969 176.542969 C 38.167969 176.542969 38.378906 176.632812 38.550781 176.808594 C 38.726562 176.984375 38.8125 177.195312 38.808594 177.441406 L 38.808594 179.523438 C 38.808594 179.765625 38.71875 179.972656 38.546875 180.144531 C 38.371094 180.316406 38.164062 180.402344 37.917969 180.402344 C 37.675781 180.402344 37.464844 180.316406 37.292969 180.144531 C 37.117188 179.972656 37.03125 179.765625 37.027344 179.523438 Z M 37.027344 183.382812 C 37.027344 183.132812 37.113281 182.921875 37.285156 182.746094 C 37.460938 182.570312 37.671875 182.484375 37.917969 182.484375 C 38.167969 182.484375 38.378906 182.570312 38.550781 182.746094 C 38.726562 182.921875 38.8125 183.132812 38.808594 183.382812 L 38.808594 185.460938 C 38.8125 185.707031 38.726562 185.921875 38.550781 186.097656 C 38.378906 186.273438 38.167969 186.359375 37.917969 186.359375 C 37.671875 186.359375 37.460938 186.273438 37.285156 186.097656 C 37.113281 185.921875 37.027344 185.707031 37.027344 185.460938 Z M 37.027344 189.320312 C 37.027344 189.074219 37.113281 188.863281 37.285156 188.683594 C 37.460938 188.507812 37.671875 188.421875 37.917969 188.421875 C 38.167969 188.421875 38.378906 188.507812 38.550781 188.683594 C 38.726562 188.863281 38.8125 189.074219 38.808594 189.320312 L 38.808594 191.398438 C 38.8125 191.648438 38.726562 191.859375 38.550781 192.035156 C 38.378906 192.210938 38.167969 192.296875 37.917969 192.296875 C 37.671875 192.296875 37.460938 192.210938 37.285156 192.035156 C 37.113281 191.859375 37.027344 191.648438 37.027344 191.398438 Z M 37.027344 189.320312" style="stroke:none;fill-rule:nonzero;fill:#d2e0f7;fill-opacity:1;"/></g></g><g clip-path="url(#e318cb77ea)" clip-rule="nonzero"><g clip-path="url(#7104fb4df1)" clip-rule="nonzero"><path d="M 32.730469 215.304688 C 32.519531 215.335938 32.324219 215.402344 32.136719 215.507812 C 31.949219 215.609375 31.789062 215.742188 31.648438 215.902344 C 31.511719 216.066406 31.40625 216.246094 31.332031 216.445312 C 31.257812 216.644531 31.222656 216.851562 31.222656 217.0625 L 31.222656 222.472656 C 31.222656 222.828125 31.289062 223.167969 31.425781 223.496094 C 31.5625 223.824219 31.753906 224.113281 32.003906 224.363281 C 32.257812 224.613281 32.542969 224.804688 32.871094 224.941406 C 33.199219 225.078125 33.539062 225.144531 33.894531 225.144531 L 57.945312 225.144531 L 57.945312 224.699219 C 57.945312 224.453125 58.03125 224.242188 58.203125 224.066406 C 58.378906 223.890625 58.589844 223.800781 58.835938 223.800781 C 59.085938 223.800781 59.296875 223.890625 59.46875 224.066406 C 59.644531 224.242188 59.730469 224.453125 59.726562 224.699219 L 59.726562 225.144531 L 69.527344 225.144531 C 69.882812 225.144531 70.222656 225.078125 70.550781 224.941406 C 70.878906 224.804688 71.164062 224.613281 71.417969 224.363281 C 71.667969 224.113281 71.859375 223.824219 71.996094 223.496094 C 72.132812 223.167969 72.199219 222.828125 72.199219 222.472656 L 72.199219 217.0625 C 72.199219 216.851562 72.164062 216.644531 72.089844 216.445312 C 72.015625 216.246094 71.910156 216.066406 71.773438 215.902344 C 71.632812 215.742188 71.472656 215.609375 71.285156 215.507812 C 71.097656 215.402344 70.902344 215.335938 70.691406 215.304688 C 70.160156 215.230469 69.65625 215.0625 69.183594 214.808594 C 68.710938 214.550781 68.300781 214.222656 67.949219 213.816406 C 67.59375 213.410156 67.324219 212.957031 67.136719 212.453125 C 66.949219 211.949219 66.855469 211.429688 66.855469 210.890625 C 66.855469 210.355469 66.949219 209.835938 67.136719 209.332031 C 67.324219 208.828125 67.59375 208.375 67.949219 207.96875 C 68.300781 207.5625 68.710938 207.234375 69.183594 206.976562 C 69.65625 206.722656 70.160156 206.554688 70.691406 206.480469 C 70.902344 206.449219 71.097656 206.382812 71.285156 206.277344 C 71.472656 206.175781 71.632812 206.042969 71.773438 205.882812 C 71.910156 205.71875 72.015625 205.539062 72.089844 205.339844 C 72.164062 205.140625 72.199219 204.933594 72.199219 204.71875 L 72.199219 199.3125 C 72.199219 198.957031 72.132812 198.617188 71.996094 198.289062 C 71.859375 197.960938 71.667969 197.671875 71.417969 197.421875 C 71.164062 197.171875 70.878906 196.980469 70.550781 196.84375 C 70.222656 196.707031 69.882812 196.640625 69.527344 196.640625 L 59.726562 196.640625 L 59.726562 197.085938 C 59.730469 197.332031 59.644531 197.542969 59.46875 197.71875 C 59.296875 197.894531 59.085938 197.984375 58.835938 197.984375 C 58.589844 197.984375 58.378906 197.894531 58.203125 197.71875 C 58.03125 197.542969 57.945312 197.332031 57.945312 197.085938 L 57.945312 196.640625 L 33.894531 196.640625 C 33.539062 196.640625 33.199219 196.707031 32.871094 196.84375 C 32.542969 196.980469 32.257812 197.171875 32.003906 197.421875 C 31.753906 197.671875 31.5625 197.960938 31.425781 198.289062 C 31.289062 198.617188 31.222656 198.957031 31.222656 199.3125 L 31.222656 204.71875 C 31.222656 204.933594 31.257812 205.140625 31.332031 205.339844 C 31.40625 205.539062 31.511719 205.71875 31.648438 205.882812 C 31.789062 206.042969 31.949219 206.175781 32.136719 206.277344 C 32.324219 206.382812 32.519531 206.449219 32.730469 206.480469 C 33.261719 206.554688 33.765625 206.722656 34.238281 206.976562 C 34.710938 207.234375 35.121094 207.5625 35.472656 207.96875 C 35.828125 208.375 36.097656 208.828125 36.285156 209.332031 C 36.472656 209.835938 36.566406 210.355469 36.566406 210.890625 C 36.566406 211.429688 36.472656 211.949219 36.285156 212.453125 C 36.097656 212.957031 35.828125 213.410156 35.472656 213.816406 C 35.121094 214.21875 34.710938 214.550781 34.238281 214.808594 C 33.765625 215.0625 33.261719 215.230469 32.730469 215.304688 Z M 57.945312 200.945312 C 57.945312 200.695312 58.03125 200.484375 58.203125 200.308594 C 58.378906 200.132812 58.589844 200.046875 58.835938 200.046875 C 59.085938 200.046875 59.296875 200.132812 59.46875 200.308594 C 59.644531 200.484375 59.730469 200.695312 59.726562 200.945312 L 59.726562 203.023438 C 59.730469 203.269531 59.644531 203.484375 59.46875 203.660156 C 59.296875 203.835938 59.085938 203.921875 58.835938 203.921875 C 58.589844 203.921875 58.378906 203.835938 58.203125 203.660156 C 58.03125 203.484375 57.945312 203.269531 57.945312 203.023438 Z M 57.945312 206.882812 C 57.945312 206.636719 58.03125 206.425781 58.203125 206.25 C 58.378906 206.070312 58.589844 205.984375 58.835938 205.984375 C 59.085938 205.984375 59.296875 206.070312 59.46875 206.25 C 59.644531 206.425781 59.730469 206.636719 59.726562 206.882812 L 59.726562 208.960938 C 59.726562 209.207031 59.636719 209.414062 59.464844 209.585938 C 59.289062 209.757812 59.082031 209.84375 58.835938 209.84375 C 58.59375 209.84375 58.382812 209.757812 58.210938 209.585938 C 58.035156 209.414062 57.949219 209.207031 57.945312 208.960938 Z M 57.945312 212.824219 C 57.945312 212.574219 58.03125 212.363281 58.203125 212.1875 C 58.378906 212.011719 58.589844 211.921875 58.835938 211.921875 C 59.085938 211.921875 59.296875 212.011719 59.46875 212.1875 C 59.644531 212.363281 59.730469 212.574219 59.726562 212.824219 L 59.726562 214.902344 C 59.730469 215.148438 59.644531 215.359375 59.46875 215.535156 C 59.296875 215.710938 59.085938 215.800781 58.835938 215.800781 C 58.589844 215.800781 58.378906 215.710938 58.203125 215.535156 C 58.03125 215.359375 57.945312 215.148438 57.945312 214.902344 Z M 57.945312 218.761719 C 57.945312 218.515625 58.03125 218.300781 58.203125 218.125 C 58.378906 217.949219 58.589844 217.863281 58.835938 217.863281 C 59.085938 217.863281 59.296875 217.949219 59.46875 218.125 C 59.644531 218.300781 59.730469 218.515625 59.726562 218.761719 L 59.726562 220.839844 C 59.730469 221.085938 59.644531 221.300781 59.46875 221.476562 C 59.296875 221.652344 59.085938 221.738281 58.835938 221.738281 C 58.589844 221.738281 58.378906 221.652344 58.203125 221.476562 C 58.03125 221.300781 57.945312 221.085938 57.945312 220.839844 Z M 57.945312 218.761719" style="stroke:none;fill-rule:nonzero;fill:#24b7ff;fill-opacity:1;"/></g></g><g clip-path="url(#cc0e610154)" clip-rule="nonzero"><g clip-path="url(#985a79e0eb)" clip-rule="nonzero"><path d="M 59.726562 200.945312 L 59.726562 203.023438 C 59.726562 203.269531 59.640625 203.480469 59.46875 203.652344 C 59.292969 203.828125 59.082031 203.914062 58.835938 203.914062 L 58.835938 205.992188 C 59.082031 205.992188 59.292969 206.078125 59.46875 206.253906 C 59.640625 206.429688 59.726562 206.636719 59.726562 206.882812 L 59.726562 208.960938 C 59.726562 209.207031 59.640625 209.417969 59.46875 209.59375 C 59.292969 209.765625 59.082031 209.851562 58.835938 209.851562 L 58.835938 211.933594 C 59.082031 211.933594 59.292969 212.019531 59.46875 212.191406 C 59.640625 212.367188 59.726562 212.578125 59.726562 212.824219 L 59.726562 214.902344 C 59.726562 215.148438 59.640625 215.355469 59.46875 215.53125 C 59.292969 215.707031 59.082031 215.792969 58.835938 215.792969 L 58.835938 217.871094 C 59.082031 217.871094 59.292969 217.957031 59.46875 218.132812 C 59.640625 218.304688 59.726562 218.515625 59.726562 218.761719 L 59.726562 220.839844 C 59.726562 221.085938 59.640625 221.296875 59.46875 221.46875 C 59.292969 221.644531 59.082031 221.730469 58.835938 221.730469 L 58.835938 223.808594 C 59.082031 223.808594 59.292969 223.898438 59.46875 224.070312 C 59.640625 224.246094 59.726562 224.453125 59.726562 224.699219 L 59.726562 225.144531 L 69.527344 225.144531 C 69.882812 225.144531 70.222656 225.078125 70.550781 224.941406 C 70.878906 224.804688 71.164062 224.613281 71.417969 224.363281 C 71.667969 224.113281 71.859375 223.824219 71.996094 223.496094 C 72.132812 223.167969 72.199219 222.828125 72.199219 222.472656 L 72.199219 217.0625 C 72.199219 216.851562 72.164062 216.644531 72.089844 216.445312 C 72.015625 216.246094 71.910156 216.066406 71.773438 215.902344 C 71.632812 215.742188 71.472656 215.609375 71.285156 215.507812 C 71.097656 215.402344 70.902344 215.335938 70.691406 215.304688 C 70.160156 215.230469 69.65625 215.0625 69.183594 214.808594 C 68.710938 214.550781 68.300781 214.222656 67.949219 213.816406 C 67.59375 213.410156 67.324219 212.957031 67.136719 212.453125 C 66.949219 211.949219 66.855469 211.429688 66.855469 210.890625 C 66.855469 210.355469 66.949219 209.835938 67.136719 209.332031 C 67.324219 208.828125 67.59375 208.375 67.949219 207.96875 C 68.300781 207.5625 68.710938 207.234375 69.183594 206.976562 C 69.65625 206.722656 70.160156 206.554688 70.691406 206.480469 C 70.902344 206.449219 71.097656 206.382812 71.285156 206.277344 C 71.472656 206.175781 71.632812 206.042969 71.773438 205.882812 C 71.910156 205.71875 72.015625 205.539062 72.089844 205.339844 C 72.164062 205.140625 72.199219 204.933594 72.199219 204.71875 L 72.199219 199.3125 C 72.199219 198.957031 72.132812 198.617188 71.996094 198.289062 C 71.859375 197.960938 71.667969 197.671875 71.417969 197.421875 C 71.164062 197.171875 70.878906 196.980469 70.550781 196.84375 C 70.222656 196.707031 69.882812 196.640625 69.527344 196.640625 L 59.726562 196.640625 L 59.726562 197.085938 C 59.726562 197.332031 59.640625 197.539062 59.46875 197.714844 C 59.292969 197.886719 59.082031 197.976562 58.835938 197.976562 L 58.835938 200.054688 C 59.082031 200.054688 59.292969 200.140625 59.46875 200.316406 C 59.640625 200.488281 59.726562 200.699219 59.726562 200.945312 Z M 59.726562 200.945312" style="stroke:none;fill-rule:nonzero;fill:#24b7ff;fill-opacity:1;"/></g></g><g clip-path="url(#e0a7551b1a)" clip-rule="nonzero"><path d="M 11.8125 213.699219 C 11.601562 213.730469 11.402344 213.800781 11.21875 213.902344 C 11.03125 214.003906 10.871094 214.136719 10.730469 214.300781 C 10.59375 214.460938 10.484375 214.640625 10.414062 214.839844 C 10.339844 215.042969 10.300781 215.246094 10.304688 215.460938 L 10.304688 220.871094 C 10.304688 221.222656 10.371094 221.566406 10.507812 221.890625 C 10.644531 222.21875 10.835938 222.507812 11.085938 222.757812 C 11.335938 223.007812 11.625 223.203125 11.953125 223.335938 C 12.28125 223.472656 12.621094 223.542969 12.976562 223.542969 L 37.027344 223.542969 L 37.027344 223.097656 C 37.027344 222.847656 37.113281 222.636719 37.285156 222.460938 C 37.460938 222.285156 37.671875 222.199219 37.917969 222.199219 C 38.167969 222.199219 38.378906 222.285156 38.550781 222.460938 C 38.726562 222.636719 38.8125 222.847656 38.808594 223.097656 L 38.808594 223.542969 L 48.609375 223.542969 C 48.964844 223.542969 49.304688 223.472656 49.632812 223.335938 C 49.957031 223.203125 50.246094 223.007812 50.496094 222.757812 C 50.75 222.507812 50.941406 222.21875 51.078125 221.890625 C 51.214844 221.566406 51.28125 221.222656 51.28125 220.871094 L 51.28125 215.460938 C 51.28125 215.246094 51.246094 215.042969 51.171875 214.839844 C 51.097656 214.640625 50.992188 214.460938 50.855469 214.300781 C 50.714844 214.136719 50.554688 214.003906 50.367188 213.902344 C 50.179688 213.800781 49.980469 213.730469 49.773438 213.699219 C 49.238281 213.625 48.738281 213.460938 48.265625 213.203125 C 47.792969 212.949219 47.382812 212.617188 47.027344 212.210938 C 46.675781 211.804688 46.40625 211.351562 46.21875 210.847656 C 46.03125 210.347656 45.9375 209.824219 45.9375 209.289062 C 45.9375 208.75 46.03125 208.230469 46.21875 207.730469 C 46.40625 207.226562 46.675781 206.769531 47.027344 206.367188 C 47.382812 205.960938 47.792969 205.628906 48.265625 205.375 C 48.738281 205.117188 49.238281 204.953125 49.773438 204.878906 C 49.980469 204.84375 50.179688 204.777344 50.367188 204.675781 C 50.554688 204.570312 50.714844 204.441406 50.855469 204.277344 C 50.992188 204.117188 51.097656 203.9375 51.171875 203.734375 C 51.246094 203.535156 51.28125 203.328125 51.28125 203.117188 L 51.28125 197.707031 C 51.28125 197.355469 51.214844 197.011719 51.078125 196.6875 C 50.941406 196.359375 50.75 196.070312 50.496094 195.820312 C 50.246094 195.570312 49.957031 195.375 49.632812 195.238281 C 49.304688 195.105469 48.964844 195.035156 48.609375 195.035156 L 38.808594 195.035156 L 38.808594 195.480469 C 38.8125 195.726562 38.726562 195.941406 38.550781 196.117188 C 38.378906 196.292969 38.167969 196.378906 37.917969 196.378906 C 37.671875 196.378906 37.460938 196.292969 37.285156 196.117188 C 37.113281 195.941406 37.027344 195.726562 37.027344 195.480469 L 37.027344 195.035156 L 12.976562 195.035156 C 12.621094 195.035156 12.28125 195.105469 11.953125 195.238281 C 11.625 195.375 11.335938 195.570312 11.085938 195.820312 C 10.835938 196.070312 10.644531 196.359375 10.507812 196.6875 C 10.371094 197.011719 10.304688 197.355469 10.304688 197.707031 L 10.304688 203.117188 C 10.300781 203.328125 10.339844 203.535156 10.414062 203.734375 C 10.484375 203.9375 10.59375 204.117188 10.730469 204.277344 C 10.871094 204.441406 11.03125 204.570312 11.21875 204.675781 C 11.402344 204.777344 11.601562 204.84375 11.8125 204.878906 C 12.34375 204.953125 12.847656 205.117188 13.320312 205.375 C 13.792969 205.628906 14.203125 205.960938 14.554688 206.367188 C 14.90625 206.769531 15.179688 207.226562 15.367188 207.726562 C 15.554688 208.230469 15.648438 208.75 15.648438 209.289062 C 15.648438 209.824219 15.554688 210.347656 15.367188 210.847656 C 15.179688 211.351562 14.90625 211.804688 14.554688 212.210938 C 14.203125 212.617188 13.792969 212.949219 13.320312 213.203125 C 12.847656 213.460938 12.34375 213.625 11.8125 213.699219 Z M 37.027344 199.339844 C 37.027344 199.09375 37.113281 198.882812 37.285156 198.707031 C 37.460938 198.53125 37.671875 198.441406 37.917969 198.441406 C 38.167969 198.441406 38.378906 198.53125 38.550781 198.707031 C 38.726562 198.882812 38.8125 199.09375 38.808594 199.339844 L 38.808594 201.417969 C 38.8125 201.667969 38.726562 201.878906 38.550781 202.054688 C 38.378906 202.230469 38.167969 202.320312 37.917969 202.320312 C 37.671875 202.320312 37.460938 202.230469 37.285156 202.054688 C 37.113281 201.878906 37.027344 201.667969 37.027344 201.417969 Z M 37.027344 205.28125 C 37.027344 205.03125 37.113281 204.820312 37.285156 204.644531 C 37.460938 204.46875 37.671875 204.378906 37.917969 204.378906 C 38.167969 204.378906 38.378906 204.46875 38.550781 204.644531 C 38.726562 204.820312 38.8125 205.03125 38.808594 205.28125 L 38.808594 207.359375 C 38.808594 207.601562 38.71875 207.8125 38.546875 207.984375 C 38.371094 208.15625 38.164062 208.242188 37.917969 208.242188 C 37.675781 208.242188 37.464844 208.15625 37.292969 207.984375 C 37.117188 207.8125 37.03125 207.601562 37.027344 207.359375 Z M 37.027344 211.21875 C 37.027344 210.972656 37.113281 210.757812 37.285156 210.582031 C 37.460938 210.40625 37.671875 210.320312 37.917969 210.320312 C 38.167969 210.320312 38.378906 210.40625 38.550781 210.582031 C 38.726562 210.757812 38.8125 210.972656 38.808594 211.21875 L 38.808594 213.296875 C 38.8125 213.546875 38.726562 213.757812 38.550781 213.933594 C 38.378906 214.109375 38.167969 214.195312 37.917969 214.195312 C 37.671875 214.195312 37.460938 214.109375 37.285156 213.933594 C 37.113281 213.757812 37.027344 213.546875 37.027344 213.296875 Z M 37.027344 217.15625 C 37.027344 216.910156 37.113281 216.699219 37.285156 216.523438 C 37.460938 216.347656 37.671875 216.257812 37.917969 216.257812 C 38.167969 216.257812 38.378906 216.347656 38.550781 216.523438 C 38.726562 216.699219 38.8125 216.910156 38.808594 217.15625 L 38.808594 219.238281 C 38.8125 219.484375 38.726562 219.695312 38.550781 219.871094 C 38.378906 220.046875 38.167969 220.136719 37.917969 220.136719 C 37.671875 220.136719 37.460938 220.046875 37.285156 219.871094 C 37.113281 219.695312 37.027344 219.484375 37.027344 219.238281 Z M 37.027344 217.15625" style="stroke:none;fill-rule:nonzero;fill:#24b7ff;fill-opacity:1;"/></g><g clip-path="url(#f058ed6a27)" clip-rule="nonzero"><path d="M 19.832031 215.222656 C 19.625 215.253906 19.425781 215.320312 19.238281 215.425781 C 19.050781 215.527344 18.890625 215.660156 18.75 215.820312 C 18.613281 215.984375 18.507812 216.164062 18.433594 216.363281 C 18.359375 216.5625 18.324219 216.769531 18.324219 216.984375 L 18.324219 222.390625 C 18.324219 222.746094 18.390625 223.085938 18.527344 223.414062 C 18.664062 223.742188 18.855469 224.03125 19.109375 224.28125 C 19.359375 224.53125 19.648438 224.722656 19.972656 224.859375 C 20.300781 224.996094 20.640625 225.0625 20.996094 225.0625 L 45.050781 225.0625 L 45.050781 224.617188 C 45.046875 224.371094 45.132812 224.160156 45.308594 223.984375 C 45.480469 223.808594 45.691406 223.71875 45.941406 223.71875 C 46.1875 223.71875 46.398438 223.808594 46.574219 223.984375 C 46.746094 224.160156 46.832031 224.371094 46.832031 224.617188 L 46.832031 225.0625 L 56.628906 225.0625 C 56.984375 225.0625 57.324219 224.996094 57.652344 224.859375 C 57.980469 224.722656 58.269531 224.53125 58.519531 224.28125 C 58.769531 224.03125 58.960938 223.742188 59.097656 223.414062 C 59.234375 223.085938 59.300781 222.746094 59.300781 222.390625 L 59.300781 216.984375 C 59.304688 216.769531 59.265625 216.5625 59.191406 216.363281 C 59.121094 216.164062 59.011719 215.984375 58.875 215.820312 C 58.734375 215.660156 58.574219 215.527344 58.386719 215.425781 C 58.203125 215.320312 58.003906 215.253906 57.792969 215.222656 C 57.261719 215.148438 56.757812 214.984375 56.285156 214.726562 C 55.8125 214.46875 55.402344 214.140625 55.050781 213.734375 C 54.699219 213.328125 54.425781 212.875 54.238281 212.371094 C 54.050781 211.867188 53.957031 211.347656 53.957031 210.8125 C 53.957031 210.273438 54.050781 209.753906 54.238281 209.25 C 54.425781 208.746094 54.699219 208.292969 55.050781 207.886719 C 55.402344 207.484375 55.8125 207.152344 56.285156 206.894531 C 56.757812 206.640625 57.261719 206.472656 57.792969 206.398438 C 58.003906 206.367188 58.203125 206.300781 58.386719 206.199219 C 58.574219 206.09375 58.734375 205.960938 58.875 205.800781 C 59.011719 205.640625 59.121094 205.457031 59.191406 205.257812 C 59.265625 205.058594 59.304688 204.851562 59.300781 204.640625 L 59.300781 199.230469 C 59.300781 198.875 59.234375 198.535156 59.097656 198.207031 C 58.960938 197.878906 58.769531 197.59375 58.519531 197.339844 C 58.269531 197.089844 57.980469 196.898438 57.652344 196.761719 C 57.324219 196.625 56.984375 196.558594 56.628906 196.558594 L 46.832031 196.558594 L 46.832031 197.003906 C 46.832031 197.25 46.746094 197.460938 46.574219 197.636719 C 46.398438 197.816406 46.1875 197.902344 45.941406 197.902344 C 45.691406 197.902344 45.480469 197.816406 45.308594 197.636719 C 45.132812 197.460938 45.046875 197.25 45.050781 197.003906 L 45.050781 196.558594 L 20.996094 196.558594 C 20.640625 196.558594 20.300781 196.625 19.972656 196.761719 C 19.648438 196.898438 19.359375 197.089844 19.109375 197.339844 C 18.855469 197.59375 18.664062 197.878906 18.527344 198.207031 C 18.390625 198.535156 18.324219 198.875 18.324219 199.230469 L 18.324219 204.640625 C 18.324219 204.851562 18.359375 205.058594 18.433594 205.257812 C 18.507812 205.457031 18.613281 205.640625 18.75 205.800781 C 18.890625 205.960938 19.050781 206.09375 19.238281 206.199219 C 19.425781 206.300781 19.625 206.367188 19.832031 206.398438 C 20.367188 206.472656 20.867188 206.640625 21.339844 206.894531 C 21.8125 207.152344 22.222656 207.484375 22.578125 207.886719 C 22.929688 208.292969 23.199219 208.746094 23.386719 209.25 C 23.574219 209.753906 23.667969 210.273438 23.667969 210.8125 C 23.667969 211.347656 23.574219 211.867188 23.386719 212.371094 C 23.199219 212.875 22.929688 213.328125 22.578125 213.734375 C 22.222656 214.140625 21.8125 214.46875 21.339844 214.726562 C 20.867188 214.984375 20.367188 215.148438 19.832031 215.222656 Z M 45.050781 200.863281 C 45.046875 200.617188 45.132812 200.402344 45.308594 200.226562 C 45.480469 200.050781 45.691406 199.964844 45.941406 199.964844 C 46.1875 199.964844 46.398438 200.050781 46.574219 200.226562 C 46.746094 200.402344 46.832031 200.617188 46.832031 200.863281 L 46.832031 202.941406 C 46.832031 203.191406 46.746094 203.402344 46.574219 203.578125 C 46.398438 203.753906 46.1875 203.839844 45.941406 203.839844 C 45.691406 203.839844 45.480469 203.753906 45.308594 203.578125 C 45.132812 203.402344 45.046875 203.191406 45.050781 202.941406 Z M 45.050781 206.800781 C 45.046875 206.554688 45.132812 206.34375 45.308594 206.167969 C 45.480469 205.992188 45.691406 205.902344 45.941406 205.902344 C 46.1875 205.902344 46.398438 205.992188 46.574219 206.167969 C 46.746094 206.34375 46.832031 206.554688 46.832031 206.800781 L 46.832031 208.882812 C 46.828125 209.125 46.742188 209.332031 46.566406 209.503906 C 46.394531 209.675781 46.183594 209.761719 45.941406 209.761719 C 45.695312 209.761719 45.488281 209.675781 45.3125 209.503906 C 45.140625 209.332031 45.050781 209.125 45.050781 208.882812 Z M 45.050781 212.742188 C 45.046875 212.492188 45.132812 212.28125 45.308594 212.105469 C 45.480469 211.929688 45.691406 211.84375 45.941406 211.84375 C 46.1875 211.84375 46.398438 211.929688 46.574219 212.105469 C 46.746094 212.28125 46.832031 212.492188 46.832031 212.742188 L 46.832031 214.820312 C 46.832031 215.066406 46.746094 215.28125 46.574219 215.457031 C 46.398438 215.632812 46.1875 215.71875 45.941406 215.71875 C 45.691406 215.71875 45.480469 215.632812 45.308594 215.457031 C 45.132812 215.28125 45.046875 215.066406 45.050781 214.820312 Z M 45.050781 218.679688 C 45.046875 218.433594 45.132812 218.222656 45.308594 218.042969 C 45.480469 217.867188 45.691406 217.78125 45.941406 217.78125 C 46.1875 217.78125 46.398438 217.867188 46.574219 218.042969 C 46.746094 218.222656 46.832031 218.433594 46.832031 218.679688 L 46.832031 220.757812 C 46.832031 221.007812 46.746094 221.21875 46.574219 221.394531 C 46.398438 221.570312 46.1875 221.660156 45.941406 221.660156 C 45.691406 221.660156 45.480469 221.570312 45.308594 221.394531 C 45.132812 221.21875 45.046875 221.007812 45.050781 220.757812 Z M 45.050781 218.679688" style="stroke:none;fill-rule:nonzero;fill:#24b7ff;fill-opacity:1;"/></g></g></svg>